<svg xmlns="http://www.w3.org/2000/svg" xmlns:xlink="http://www.w3.org/1999/xlink" width="1200" zoomAndPan="magnify" viewBox="0 0 900 374.999991" height="500" preserveAspectRatio="xMidYMid meet" version="1.0"><path fill="#ffffff" d="M 305.144531 333.34375 C 299.351562 333.34375 291.003906 331.675781 283.246094 327.550781 C 281.871094 326.863281 280.59375 325.980469 279.417969 324.898438 C 276.863281 322.542969 276.46875 319.792969 278.433594 316.945312 C 280.496094 313.902344 283.148438 314.488281 285.800781 316.160156 C 296.304688 322.640625 307.695312 323.816406 319.675781 321.363281 C 323.113281 320.675781 325.863281 318.710938 327.925781 315.863281 C 331.851562 310.464844 330.28125 303.589844 324.488281 300.25 C 319.871094 297.601562 314.667969 296.914062 309.5625 295.832031 C 304.75 294.851562 299.839844 294.066406 295.128906 292.394531 C 286.09375 289.253906 279.613281 283.65625 278.828125 273.445312 C 278.042969 263.132812 282.265625 255.277344 291.003906 249.976562 C 303.574219 242.316406 325.175781 243.691406 336.859375 252.726562 C 339.804688 254.984375 340.691406 257.734375 338.726562 260.875 C 336.664062 264.3125 333.71875 263.230469 330.96875 261.5625 C 322.621094 256.359375 313.6875 254.789062 304.160156 256.75 C 297.386719 258.125 292.769531 262.25 291.789062 267.945312 C 290.511719 274.820312 293.359375 279.828125 300.726562 282.085938 C 307.105469 283.953125 313.589844 285.128906 320.070312 286.503906 C 323.703125 287.289062 327.140625 288.46875 330.476562 290.039062 C 347.957031 297.796875 345.011719 319.496094 332.835938 327.351562 C 325.273438 332.261719 316.925781 333.734375 305.144531 333.34375 Z M 305.144531 333.34375 " fill-opacity="1" fill-rule="nonzero"/><path fill="#ffffff" d="M 410.800781 302.511719 C 410.605469 314.195312 407.363281 324.605469 396.167969 330.101562 C 385.074219 335.503906 373.585938 335.40625 363.273438 327.84375 C 353.75 320.773438 351.492188 310.367188 352.179688 299.171875 C 352.964844 285.425781 361.996094 274.621094 374.46875 272.363281 C 389.984375 269.613281 402.847656 275.703125 408.246094 288.46875 C 410.113281 292.984375 410.800781 297.699219 410.800781 302.511719 Z M 398.230469 301.921875 C 398.230469 300.742188 398.230469 298.386719 397.839844 296.226562 C 396.660156 287.976562 391.0625 282.28125 383.699219 281.496094 C 375.253906 280.613281 368.871094 284.441406 366.21875 292.394531 C 363.863281 299.269531 363.960938 306.339844 366.417969 313.214844 C 368.773438 320.085938 374.175781 323.71875 381.246094 323.816406 C 388.609375 323.816406 393.8125 320.285156 396.660156 313.410156 C 398.035156 310.070312 398.230469 306.535156 398.328125 302.019531 Z M 398.230469 301.921875 " fill-opacity="1" fill-rule="nonzero"/><path fill="#ffffff" d="M 631.738281 333.441406 C 613.867188 333.835938 602.082031 321.855469 601.789062 303 C 601.496094 284.246094 612.785156 272.070312 630.855469 271.675781 C 648.234375 271.285156 660.214844 283.363281 660.605469 301.527344 C 661 320.773438 649.902344 333.046875 631.738281 333.441406 Z M 647.941406 302.609375 C 648.136719 299.367188 647.644531 296.128906 646.761719 292.984375 C 644.601562 285.816406 639.101562 281.59375 631.933594 281.398438 C 624.078125 281.203125 618.679688 284.835938 616.027344 292.101562 C 613.671875 298.582031 613.671875 305.160156 615.632812 311.640625 C 618.089844 319.890625 623.980469 324.015625 632.230469 323.71875 C 639.59375 323.425781 645.386719 318.417969 647.15625 310.464844 C 647.742188 307.8125 648.136719 305.160156 647.941406 302.511719 Z M 647.941406 302.609375 " fill-opacity="1" fill-rule="nonzero"/><path fill="#ffffff" d="M 501.433594 324.210938 C 494.757812 332.949219 486.3125 334.523438 476.984375 332.851562 C 468.441406 331.28125 463.824219 325.683594 462.253906 317.4375 C 460.878906 310.464844 461.664062 303.394531 461.566406 296.324219 C 461.46875 290.433594 461.566406 284.441406 461.566406 278.550781 C 461.566406 273.933594 463.335938 272.167969 467.558594 272.070312 C 471.878906 272.070312 473.941406 273.9375 474.039062 278.648438 C 474.136719 287.585938 474.039062 296.421875 474.039062 305.359375 C 474.039062 306.535156 474.039062 307.617188 474.039062 308.792969 C 474.039062 319.203125 477.277344 323.230469 485.625 323.523438 C 494.558594 323.816406 501.238281 317.632812 501.433594 308.402344 C 501.628906 298.484375 501.433594 288.664062 501.628906 278.746094 C 501.628906 274.132812 503.496094 272.265625 507.523438 272.167969 C 512.136719 271.972656 514.003906 273.835938 514.003906 278.945312 C 514.003906 294.65625 514.003906 310.265625 514.003906 325.980469 C 514.003906 331.085938 512.332031 333.148438 508.40625 333.34375 C 504.378906 333.539062 502.613281 331.773438 501.828125 326.765625 C 501.828125 326.273438 501.628906 325.683594 501.335938 324.308594 Z M 501.433594 324.210938 " fill-opacity="1" fill-rule="nonzero"/><path fill="#ffffff" d="M 686.921875 280.808594 C 691.144531 275.703125 696.449219 272.660156 703.027344 271.875 C 717.953125 270.203125 726.886719 277.46875 727.476562 292.394531 C 727.871094 303.785156 727.675781 315.277344 727.574219 326.765625 C 727.574219 331.183594 725.316406 333.246094 721.390625 333.246094 C 717.460938 333.246094 715.203125 331.183594 715.105469 326.863281 C 715.007812 317.238281 715.105469 307.617188 715.105469 298.089844 C 715.105469 297.402344 715.105469 296.714844 715.105469 295.929688 C 714.910156 286.210938 711.472656 282.085938 703.320312 281.691406 C 694.878906 281.300781 687.511719 287.191406 687.023438 295.539062 C 686.53125 304.277344 686.824219 313.015625 686.726562 321.757812 C 686.726562 323.917969 686.726562 325.980469 686.53125 328.140625 C 686.136719 332.066406 683.585938 333.34375 680.050781 333.246094 C 676.515625 333.148438 674.355469 331.28125 674.355469 327.746094 C 674.355469 311.054688 674.355469 294.457031 674.355469 277.765625 C 674.355469 274.230469 676.320312 272.363281 679.953125 272.167969 C 683.683594 272.070312 685.84375 273.542969 686.234375 277.46875 C 686.335938 278.550781 685.84375 279.730469 687.023438 281.003906 Z M 686.921875 280.808594 " fill-opacity="1" fill-rule="nonzero"/><path fill="#ffffff" d="M 764.59375 333.441406 C 757.722656 333.246094 751.140625 332.164062 745.054688 328.628906 C 742.109375 326.960938 740.339844 324.703125 742.011719 321.363281 C 743.777344 317.828125 746.527344 319.007812 749.179688 320.382812 C 754.675781 323.328125 760.570312 324.503906 766.753906 324.308594 C 769.601562 324.308594 772.351562 323.71875 774.808594 322.246094 C 777.261719 320.675781 778.636719 318.515625 778.441406 315.570312 C 778.34375 312.722656 776.671875 310.953125 774.121094 309.777344 C 770.191406 308.007812 765.96875 307.617188 761.847656 306.734375 C 759 306.046875 756.050781 305.652344 753.304688 304.472656 C 747.609375 302.117188 743.484375 298.386719 742.894531 291.808594 C 742.304688 284.640625 744.957031 278.84375 751.242188 275.507812 C 762.730469 269.417969 774.316406 270.300781 785.511719 276.585938 C 788.359375 278.15625 789.144531 280.613281 787.574219 283.363281 C 786 286.011719 783.449219 286.113281 780.992188 284.640625 C 775.886719 281.59375 770.289062 280.316406 764.398438 280.90625 C 762.730469 281.105469 761.058594 281.398438 759.488281 282.085938 C 756.152344 283.363281 754.382812 285.914062 754.382812 289.546875 C 754.382812 293.179688 756.542969 295.441406 759.785156 296.324219 C 764.007812 297.503906 768.328125 298.191406 772.550781 299.171875 C 774.710938 299.664062 776.96875 300.152344 779.128906 300.839844 C 785.414062 303 789.535156 306.929688 790.027344 313.902344 C 790.421875 320.96875 787.472656 326.175781 781.386719 329.613281 C 776.183594 332.558594 770.488281 333.34375 764.59375 333.246094 Z M 764.59375 333.441406 " fill-opacity="1" fill-rule="nonzero"/><path fill="#ffffff" d="M 534.527344 299.464844 C 534.527344 295.34375 534.328125 291.21875 534.527344 287.191406 C 534.820312 283.460938 533.839844 281.59375 529.8125 282.28125 C 528.730469 282.476562 527.554688 282.28125 526.472656 282.28125 C 523.625 281.890625 522.152344 280.21875 522.152344 277.46875 C 522.152344 274.917969 523.527344 273.25 526.277344 272.953125 C 526.375 272.953125 526.570312 272.953125 526.671875 272.953125 C 529.125 272.167969 532.757812 274.328125 534.132812 271.773438 C 535.3125 269.714844 534.527344 266.570312 534.527344 263.820312 C 534.527344 262.445312 534.527344 260.972656 534.527344 259.597656 C 534.820312 255.964844 536.980469 254.296875 540.417969 254.199219 C 543.953125 254.101562 546.605469 255.476562 546.898438 259.402344 C 547.09375 262.347656 547.191406 265.394531 546.996094 268.339844 C 546.703125 271.773438 547.683594 273.25 551.414062 272.953125 C 554.65625 272.660156 557.894531 273.050781 561.136719 273.050781 C 564.375 273.050781 566.339844 274.425781 566.339844 277.765625 C 566.339844 281.105469 564.277344 282.476562 561.039062 282.476562 C 557.601562 282.476562 554.261719 282.675781 550.824219 282.476562 C 547.976562 282.28125 546.800781 283.066406 546.898438 286.210938 C 547.09375 294.359375 546.898438 302.609375 546.996094 310.757812 C 547.191406 320.480469 552.101562 324.503906 561.824219 322.933594 C 564.476562 322.542969 567.324219 321.167969 568.109375 325.390625 C 568.796875 329.21875 567.027344 331.871094 563.199219 332.851562 C 558.878906 333.835938 554.460938 333.933594 550.136719 333.046875 C 541.105469 331.183594 535.800781 325.585938 534.917969 316.160156 C 534.425781 310.660156 534.917969 305.160156 534.917969 299.664062 C 534.820312 299.664062 534.722656 299.664062 534.527344 299.664062 Z M 534.527344 299.464844 " fill-opacity="1" fill-rule="nonzero"/><path fill="#ffffff" d="M 424.449219 282.773438 C 424.449219 272.660156 424.449219 262.445312 424.449219 252.332031 C 424.449219 247.421875 427.101562 245.066406 431.519531 245.460938 C 435.25 245.851562 436.820312 247.914062 436.820312 252.628906 C 436.820312 271.382812 436.820312 290.136719 436.820312 308.894531 C 436.820312 310.167969 436.820312 311.445312 436.820312 312.722656 C 437.410156 319.988281 440.75 323.03125 447.917969 323.03125 C 450.175781 323.03125 452.730469 322.445312 452.730469 325.980469 C 452.730469 329.21875 452.828125 332.460938 448.605469 333.046875 C 435.839844 334.816406 425.53125 330.496094 424.644531 315.765625 C 424.058594 304.769531 424.546875 293.769531 424.546875 282.773438 C 424.449219 282.773438 424.351562 282.773438 424.253906 282.773438 Z M 424.449219 282.773438 " fill-opacity="1" fill-rule="nonzero"/><path fill="#ffffff" d="M 575.964844 302.707031 C 575.964844 294.949219 575.964844 287.191406 575.964844 279.433594 C 575.964844 274.523438 577.925781 272.265625 581.757812 272.265625 C 585.882812 272.265625 588.238281 274.523438 588.238281 279.335938 C 588.238281 294.851562 588.238281 310.367188 588.238281 325.878906 C 588.238281 330.789062 585.980469 333.148438 581.855469 333.046875 C 577.828125 333.046875 575.964844 330.691406 575.867188 325.488281 C 575.867188 317.828125 575.867188 310.265625 575.867188 302.609375 Z M 575.964844 302.707031 " fill-opacity="1" fill-rule="nonzero"/><path fill="#ffffff" d="M 582.148438 259.5 C 577.140625 259.5 574.390625 257.242188 574.292969 252.726562 C 574.292969 248.308594 576.945312 245.753906 581.855469 245.65625 C 586.863281 245.65625 589.613281 248.011719 589.613281 252.527344 C 589.613281 257.144531 587.15625 259.5 582.050781 259.5 Z M 582.148438 259.5 " fill-opacity="1" fill-rule="nonzero"/><path fill="#ffffff" d="M 173.367188 37.1875 C 173.367188 37.1875 77.726562 124.1875 63.09375 231.222656 C 71.929688 208.636719 87.542969 176.820312 115.628906 145.496094 C 131.832031 127.332031 148.328125 113.78125 162.566406 103.667969 C 194.28125 171.324219 226 238.878906 257.714844 306.535156 L 173.464844 37.285156 Z M 173.367188 37.1875 " fill-opacity="1" fill-rule="nonzero"/><path fill="#ffffff" d="M 257.617188 167.589844 L 257.617188 171.8125 C 226.785156 183.988281 186.328125 203.726562 144.105469 235.835938 C 97.265625 271.382812 65.351562 309.1875 44.828125 337.664062 C 46.988281 294.359375 29.019531 254.296875 17.140625 232.792969 C 17.828125 233.382812 51.800781 262.742188 54.160156 298.386719 C 54.160156 298.386719 116.804688 214.035156 257.714844 167.589844 Z M 257.617188 167.589844 " fill-opacity="1" fill-rule="nonzero"/><path fill="#ffffff" d="M 257.617188 162.386719 L 257.617188 167.589844 C 116.707031 214.035156 54.058594 298.386719 54.058594 298.386719 C 51.703125 262.742188 17.828125 233.480469 17.039062 232.792969 C 11.445312 222.679688 7.222656 216.6875 7.023438 216.492188 C 17.726562 223.167969 30.492188 232.695312 43.160156 245.753906 C 51.3125 254.199219 57.792969 262.445312 63.09375 269.910156 C 81.75 250.859375 108.753906 227.195312 145.183594 205.984375 C 188.585938 180.75 228.945312 168.574219 257.617188 162.386719 Z M 257.617188 162.386719 " fill-opacity="1" fill-rule="nonzero"/><path fill="#ffffff" d="M 274.898438 225.820312 C 272.347656 225.820312 270.382812 225.132812 269.105469 223.757812 C 267.730469 222.382812 267.140625 220.417969 267.140625 217.867188 L 267.140625 138.527344 C 267.140625 135.972656 267.730469 134.007812 269.007812 132.730469 C 270.285156 131.355469 272.148438 130.769531 274.507812 130.769531 C 276.863281 130.769531 278.828125 131.457031 280.105469 132.730469 C 281.480469 134.105469 282.066406 135.972656 282.066406 138.527344 L 282.066406 153.941406 L 280.203125 153.941406 C 282.265625 146.480469 286.09375 140.6875 291.789062 136.660156 C 297.484375 132.632812 304.554688 130.472656 312.902344 130.179688 C 314.765625 130.082031 316.335938 130.472656 317.417969 131.457031 C 318.496094 132.4375 319.183594 134.007812 319.285156 136.265625 C 319.382812 138.425781 318.890625 140.097656 317.808594 141.371094 C 316.632812 142.648438 314.863281 143.433594 312.507812 143.632812 L 309.464844 144.023438 C 300.824219 144.808594 294.242188 147.558594 289.628906 152.273438 C 285.011719 156.984375 282.65625 163.566406 282.65625 171.8125 L 282.65625 217.867188 C 282.65625 220.417969 281.96875 222.382812 280.691406 223.757812 C 279.316406 225.132812 277.453125 225.820312 274.898438 225.820312 Z M 274.898438 225.820312 " fill-opacity="1" fill-rule="nonzero"/><path fill="#ffffff" d="M 381.929688 226.113281 C 373.585938 226.113281 366.320312 223.953125 360.328125 219.632812 C 354.339844 215.3125 350.3125 209.519531 348.25 202.351562 L 350.3125 200.289062 L 350.3125 217.769531 C 350.3125 220.320312 349.625 222.285156 348.347656 223.660156 C 346.972656 225.035156 345.109375 225.722656 342.75 225.722656 C 340.394531 225.722656 338.332031 225.035156 337.054688 223.660156 C 335.78125 222.285156 335.191406 220.320312 335.191406 217.769531 L 335.191406 96.792969 C 335.191406 94.238281 335.78125 92.277344 337.054688 91 C 338.332031 89.625 340.199219 89.035156 342.75 89.035156 C 345.304688 89.035156 347.074219 89.722656 348.445312 91 C 349.820312 92.375 350.507812 94.238281 350.507812 96.792969 L 350.507812 153.449219 L 348.25 153.449219 C 350.410156 146.382812 354.4375 140.6875 360.425781 136.5625 C 366.417969 132.339844 373.585938 130.277344 381.929688 130.277344 C 390.277344 130.277344 397.542969 132.242188 403.632812 136.070312 C 409.71875 139.898438 414.433594 145.496094 417.773438 152.664062 C 421.109375 159.832031 422.78125 168.375 422.78125 178.292969 C 422.78125 188.210938 421.109375 196.558594 417.773438 203.726562 C 414.433594 210.894531 409.621094 216.394531 403.535156 220.320312 C 397.347656 224.25 390.179688 226.214844 381.929688 226.214844 Z M 378.691406 213.839844 C 384.484375 213.839844 389.589844 212.464844 393.8125 209.617188 C 398.035156 206.867188 401.375 202.746094 403.730469 197.441406 C 406.085938 192.140625 407.265625 185.757812 407.265625 178.195312 C 407.265625 166.707031 404.710938 157.871094 399.605469 151.78125 C 394.5 145.695312 387.527344 142.648438 378.789062 142.648438 C 370.050781 142.648438 368.085938 144.023438 363.765625 146.773438 C 359.445312 149.523438 356.105469 153.449219 353.75 158.753906 C 351.394531 164.054688 350.214844 170.535156 350.214844 178.292969 C 350.214844 189.683594 352.769531 198.523438 357.972656 204.609375 C 363.175781 210.796875 370.050781 213.839844 378.691406 213.839844 Z M 378.691406 213.839844 " fill-opacity="1" fill-rule="nonzero"/><path fill="#ffffff" d="M 475.117188 226.113281 C 468.734375 226.113281 463.136719 224.839844 458.128906 222.382812 C 453.121094 219.929688 449.195312 216.492188 446.25 212.171875 C 443.304688 207.851562 441.832031 203.039062 441.832031 197.738281 C 441.832031 192.433594 443.597656 185.460938 447.035156 181.535156 C 450.472656 177.605469 456.265625 174.855469 464.316406 173.1875 C 472.367188 171.519531 483.367188 170.734375 497.308594 170.734375 L 505.851562 170.734375 L 505.851562 180.847656 L 497.507812 180.847656 C 487.195312 180.847656 479.144531 181.339844 473.253906 182.320312 C 467.359375 183.300781 463.238281 184.875 460.878906 187.132812 C 458.523438 189.390625 457.34375 192.628906 457.34375 196.851562 C 457.34375 201.074219 459.113281 206.28125 462.746094 209.617188 C 466.378906 212.957031 471.289062 214.527344 477.476562 214.527344 C 483.660156 214.527344 487 213.347656 490.925781 210.894531 C 494.757812 208.441406 497.800781 205.199219 500.058594 200.976562 C 502.316406 196.753906 503.398438 191.941406 503.398438 186.542969 L 503.398438 164.839844 C 503.398438 156.984375 501.828125 151.289062 498.683594 147.855469 C 495.542969 144.417969 490.339844 142.648438 483.070312 142.648438 C 475.804688 142.648438 474.234375 143.238281 469.71875 144.320312 C 465.296875 145.496094 460.585938 147.265625 455.675781 149.816406 C 453.90625 150.703125 452.335938 150.996094 451.160156 150.703125 C 449.882812 150.40625 448.898438 149.71875 448.113281 148.738281 C 447.328125 147.753906 446.9375 146.578125 446.738281 145.203125 C 446.640625 143.828125 446.9375 142.550781 447.625 141.273438 C 448.3125 140 449.390625 139.015625 450.960938 138.230469 C 456.558594 135.480469 462.058594 133.417969 467.558594 132.144531 C 473.054688 130.867188 478.164062 130.277344 483.171875 130.277344 C 491.125 130.277344 497.703125 131.554688 502.90625 134.203125 C 508.113281 136.757812 511.941406 140.785156 514.492188 145.988281 C 517.046875 151.289062 518.324219 157.96875 518.324219 166.214844 L 518.324219 217.769531 C 518.324219 220.320312 517.734375 222.285156 516.554688 223.660156 C 515.378906 225.035156 513.609375 225.722656 511.351562 225.722656 C 509.09375 225.722656 507.128906 225.035156 505.851562 223.660156 C 504.578125 222.285156 503.988281 220.320312 503.988281 217.769531 L 503.988281 202.941406 L 505.65625 202.941406 C 504.675781 207.753906 502.710938 211.875 499.863281 215.3125 C 497.015625 218.75 493.480469 221.402344 489.355469 223.265625 C 485.132812 225.132812 480.519531 226.113281 475.316406 226.113281 Z M 475.117188 226.113281 " fill-opacity="1" fill-rule="nonzero"/><path fill="#ffffff" d="M 583.917969 226.113281 C 576.652344 226.113281 570.660156 224.839844 565.75 222.1875 C 560.839844 219.632812 557.207031 215.804688 554.851562 210.796875 C 552.398438 205.789062 551.21875 199.699219 551.21875 192.433594 L 551.21875 143.925781 L 538.453125 143.925781 C 536.292969 143.925781 534.625 143.433594 533.542969 142.355469 C 532.367188 141.273438 531.875 139.800781 531.875 137.839844 C 531.875 135.875 532.464844 134.5 533.542969 133.417969 C 534.722656 132.4375 536.292969 131.945312 538.453125 131.945312 L 551.21875 131.945312 L 551.21875 110.050781 C 551.21875 107.496094 551.90625 105.53125 553.28125 104.253906 C 554.65625 102.878906 556.621094 102.292969 558.976562 102.292969 C 561.332031 102.292969 563.296875 102.980469 564.574219 104.253906 C 565.949219 105.628906 566.535156 107.496094 566.535156 110.050781 L 566.535156 131.945312 L 590.496094 131.945312 C 592.65625 131.945312 594.324219 132.4375 595.40625 133.417969 C 596.585938 134.402344 597.074219 135.875 597.074219 137.839844 C 597.074219 139.800781 596.488281 141.273438 595.40625 142.355469 C 594.226562 143.433594 592.65625 143.925781 590.496094 143.925781 L 566.535156 143.925781 L 566.535156 190.863281 C 566.535156 198.128906 568.011719 203.53125 571.054688 207.359375 C 574.097656 211.089844 579.007812 212.957031 585.882812 212.957031 C 592.753906 212.957031 590.398438 212.664062 592.066406 212.171875 C 593.738281 211.679688 595.210938 211.386719 596.386719 211.386719 C 597.566406 211.289062 598.449219 211.679688 599.234375 212.5625 C 600.019531 213.449219 600.414062 215.019531 600.414062 217.082031 C 600.414062 219.144531 600.121094 220.027344 599.53125 221.304688 C 598.941406 222.578125 597.960938 223.464844 596.585938 223.953125 C 595.113281 224.445312 593.050781 224.9375 590.59375 225.425781 C 588.140625 225.917969 585.882812 226.113281 583.820312 226.113281 Z M 583.917969 226.113281 " fill-opacity="1" fill-rule="nonzero"/><path fill="#ffffff" d="M 654.125 226.113281 C 644.40625 226.113281 635.960938 224.152344 628.890625 220.320312 C 621.820312 216.492188 616.417969 210.992188 612.492188 203.824219 C 608.664062 196.753906 606.699219 188.210938 606.699219 178.292969 C 606.699219 168.375 608.5625 160.226562 612.394531 153.058594 C 616.222656 145.890625 621.425781 140.292969 628.105469 136.265625 C 634.78125 132.242188 642.441406 130.179688 651.179688 130.179688 C 659.917969 130.179688 662.964844 131.257812 667.875 133.320312 C 672.785156 135.382812 677.003906 138.425781 680.539062 142.355469 C 683.976562 146.28125 686.726562 150.996094 688.496094 156.59375 C 690.359375 162.191406 691.242188 168.476562 691.242188 175.445312 C 691.242188 182.417969 690.65625 178.980469 689.574219 179.964844 C 688.394531 180.945312 686.824219 181.4375 684.664062 181.4375 L 618.480469 181.4375 L 618.480469 171.320312 L 681.03125 171.320312 L 677.988281 173.777344 C 677.988281 166.902344 677.003906 161.109375 674.945312 156.398438 C 672.882812 151.683594 669.9375 147.953125 666.105469 145.496094 C 662.277344 142.945312 657.367188 141.667969 651.574219 141.667969 C 645.78125 141.667969 639.59375 143.140625 635.078125 146.183594 C 630.558594 149.128906 627.222656 153.253906 624.863281 158.558594 C 622.605469 163.859375 621.425781 169.949219 621.425781 176.917969 L 621.425781 178.097656 C 621.425781 189.78125 624.273438 198.621094 629.871094 204.707031 C 635.46875 210.796875 643.519531 213.839844 653.929688 213.839844 C 664.339844 213.839844 662.472656 213.25 666.792969 212.171875 C 671.015625 210.992188 675.238281 209.128906 679.265625 206.476562 C 681.03125 205.296875 682.699219 204.804688 684.074219 204.90625 C 685.546875 204.90625 686.726562 205.394531 687.609375 206.28125 C 688.496094 207.066406 689.082031 208.144531 689.378906 209.324219 C 689.671875 210.5 689.574219 211.875 688.984375 213.25 C 688.394531 214.625 687.316406 215.804688 685.648438 216.882812 C 681.425781 219.929688 676.515625 222.285156 670.820312 223.953125 C 665.125 225.625 659.429688 226.410156 653.929688 226.410156 Z M 654.125 226.113281 " fill-opacity="1" fill-rule="nonzero"/><path fill="#ffffff" d="M 752.8125 226.113281 C 743.582031 226.113281 735.53125 224.054688 728.851562 220.027344 C 722.175781 216 716.972656 210.304688 713.335938 203.039062 C 709.703125 195.773438 707.9375 187.328125 707.9375 177.605469 C 707.9375 167.886719 708.917969 163.664062 710.980469 157.871094 C 713.042969 152.074219 715.988281 147.066406 719.917969 142.945312 C 723.84375 138.820312 728.558594 135.675781 734.058594 133.515625 C 739.554688 131.355469 745.839844 130.277344 752.8125 130.277344 C 759.785156 130.277344 762.140625 130.964844 767.050781 132.339844 C 771.960938 133.714844 776.476562 136.167969 780.601562 139.605469 C 781.878906 140.488281 782.664062 141.570312 783.054688 142.847656 C 783.449219 144.121094 783.449219 145.398438 783.054688 146.578125 C 782.664062 147.753906 782.074219 148.835938 781.191406 149.621094 C 780.304688 150.40625 779.226562 150.898438 777.851562 151.09375 C 776.476562 151.191406 775.199219 150.800781 773.726562 149.71875 C 770.386719 147.167969 767.050781 145.398438 763.613281 144.417969 C 760.175781 143.433594 756.9375 142.945312 753.695312 142.945312 C 748.785156 142.945312 744.464844 143.730469 740.734375 145.300781 C 737.101562 146.871094 733.957031 149.128906 731.40625 152.074219 C 728.851562 155.023438 726.886719 158.65625 725.613281 162.878906 C 724.238281 167.199219 723.648438 172.207031 723.648438 177.902344 C 723.648438 188.898438 726.199219 197.636719 731.40625 204.019531 C 736.609375 210.402344 743.972656 213.644531 753.695312 213.644531 C 763.417969 213.644531 760.175781 213.152344 763.515625 212.171875 C 766.855469 211.1875 770.289062 209.421875 773.726562 206.867188 C 775.101562 205.886719 776.476562 205.394531 777.753906 205.492188 C 779.03125 205.59375 780.109375 206.082031 780.992188 206.964844 C 781.878906 207.753906 782.464844 208.832031 782.761719 210.109375 C 783.054688 211.386719 783.054688 212.660156 782.761719 213.839844 C 782.367188 215.019531 781.582031 216.097656 780.304688 216.984375 C 776.28125 220.320312 771.761719 222.679688 766.953125 224.152344 C 762.140625 225.625 757.425781 226.3125 752.910156 226.3125 Z M 752.8125 226.113281 " fill-opacity="1" fill-rule="nonzero"/><path fill="#ffffff" d="M 809.273438 225.820312 C 806.71875 225.820312 804.855469 225.132812 803.578125 223.757812 C 802.300781 222.382812 801.710938 220.417969 801.710938 217.867188 L 801.710938 96.890625 C 801.710938 94.335938 802.300781 92.375 803.578125 91.097656 C 804.855469 89.722656 806.71875 89.132812 809.273438 89.132812 C 811.828125 89.132812 813.59375 89.820312 814.96875 91.097656 C 816.34375 92.472656 817.03125 94.335938 817.03125 96.890625 L 817.03125 152.664062 L 814.574219 152.664062 C 817.226562 145.300781 821.546875 139.800781 827.636719 136.070312 C 833.625 132.339844 840.597656 130.472656 848.453125 130.472656 C 856.308594 130.472656 861.90625 131.847656 866.816406 134.5 C 871.726562 137.152344 875.359375 141.175781 877.714844 146.578125 C 880.171875 151.976562 881.347656 158.753906 881.347656 167 L 881.347656 217.964844 C 881.347656 220.519531 880.660156 222.480469 879.382812 223.855469 C 878.007812 225.230469 876.144531 225.917969 873.789062 225.917969 C 871.429688 225.917969 869.269531 225.230469 867.992188 223.855469 C 866.617188 222.480469 866.03125 220.519531 866.03125 217.964844 L 866.03125 167.984375 C 866.03125 159.34375 864.359375 153.058594 861.023438 149.03125 C 857.683594 145.007812 852.28125 143.042969 844.917969 143.042969 C 837.554688 143.042969 829.699219 145.695312 824.691406 150.898438 C 819.683594 156.199219 817.128906 163.171875 817.128906 171.910156 L 817.128906 217.964844 C 817.128906 223.265625 814.574219 225.917969 809.371094 225.917969 Z M 809.273438 225.820312 " fill-opacity="1" fill-rule="nonzero"/></svg>