<svg xmlns="http://www.w3.org/2000/svg" xmlns:xlink="http://www.w3.org/1999/xlink" width="700" zoomAndPan="magnify" viewBox="0 0 525 599.999999" height="800" preserveAspectRatio="xMidYMid meet" version="1.0"><path fill="#91e6ff" d="M 342.835938 2.8125 C 342.835938 2.8125 153.707031 174.898438 124.769531 386.613281 C 142.242188 341.9375 173.117188 279.003906 228.65625 217.046875 C 260.699219 181.117188 293.320312 154.3125 321.476562 134.308594 C 384.191406 268.132812 446.914062 401.757812 509.632812 535.582031 L 343.027344 3.003906 Z M 342.835938 2.8125 " fill-opacity="1" fill-rule="nonzero"/><path fill="#91e6ff" d="M 509.4375 260.746094 L 509.4375 269.101562 C 448.46875 293.183594 368.464844 332.226562 284.96875 395.738281 C 192.34375 466.050781 129.234375 540.828125 88.648438 597.15625 C 92.921875 511.496094 57.386719 432.253906 33.898438 389.71875 C 35.257812 390.886719 102.4375 448.960938 107.101562 519.464844 C 107.101562 519.464844 230.980469 352.617188 509.632812 260.746094 Z M 509.4375 260.746094 " fill-opacity="1" fill-rule="nonzero"/><path fill="#ffffff" d="M 509.4375 250.457031 L 509.4375 260.746094 C 230.789062 352.617188 106.902344 519.464844 106.902344 519.464844 C 102.242188 448.960938 35.257812 391.078125 33.695312 389.71875 C 22.632812 369.714844 14.285156 357.863281 13.890625 357.476562 C 35.054688 370.679688 60.300781 389.527344 85.351562 415.355469 C 101.472656 432.0625 114.285156 448.371094 124.769531 463.136719 C 161.660156 425.453125 215.0625 378.648438 287.101562 336.691406 C 372.929688 286.777344 452.738281 262.695312 509.4375 250.457031 Z M 509.4375 250.457031 " fill-opacity="1" fill-rule="nonzero"/></svg>