<svg xmlns="http://www.w3.org/2000/svg" xmlns:xlink="http://www.w3.org/1999/xlink" width="700" zoomAndPan="magnify" viewBox="0 0 525 599.999999" height="800" preserveAspectRatio="xMidYMid meet" version="1.0"><path fill="#ffffff" d="M 342.820312 2.769531 C 342.820312 2.769531 153.699219 174.804688 124.761719 386.453125 C 142.234375 341.792969 173.109375 278.878906 228.648438 216.9375 C 260.6875 181.019531 293.304688 154.226562 321.460938 134.226562 C 384.175781 268.011719 446.894531 401.59375 509.609375 535.378906 L 343.011719 2.960938 Z M 342.820312 2.769531 " fill-opacity="1" fill-rule="nonzero"/><path fill="#ffffff" d="M 509.414062 260.628906 L 509.414062 268.976562 C 448.449219 293.054688 368.449219 332.085938 284.957031 395.578125 C 192.335938 465.867188 129.226562 540.625 88.644531 596.933594 C 92.917969 511.300781 57.382812 432.082031 33.894531 389.558594 C 35.253906 390.726562 102.433594 448.78125 107.097656 519.265625 C 107.097656 519.265625 230.972656 352.46875 509.609375 260.628906 Z M 509.414062 260.628906 " fill-opacity="1" fill-rule="nonzero"/><path fill="#ffffff" d="M 509.414062 250.339844 L 509.414062 260.628906 C 230.777344 352.46875 106.898438 519.265625 106.898438 519.265625 C 102.238281 448.78125 35.253906 390.917969 33.695312 389.558594 C 22.632812 369.5625 14.285156 357.714844 13.890625 357.328125 C 35.054688 370.527344 60.296875 389.367188 85.347656 415.1875 C 101.46875 431.890625 114.28125 448.195312 124.761719 462.957031 C 161.652344 425.285156 215.050781 378.492188 287.089844 336.546875 C 372.914062 286.648438 452.71875 262.574219 509.414062 250.339844 Z M 509.414062 250.339844 " fill-opacity="1" fill-rule="nonzero"/></svg>